HIERARCHY
ROOT Hips
{
	OFFSET 0.000000 0.000000 0.000000
	CHANNELS 6 Xposition Yposition Zposition Zrotation Yrotation Xrotation 
	JOINT LHipJoint
	{
		OFFSET 0.000000 0.000000 0.000000
		CHANNELS 3 Zrotation Yrotation Xrotation
		JOINT LeftUpLeg
		{
			OFFSET 1.363060 -1.794630 0.839290
			CHANNELS 3 Zrotation Yrotation Xrotation
			JOINT LeftLeg
			{
				OFFSET 2.448110 -6.726130 0.000000
				CHANNELS 3 Zrotation Yrotation Xrotation
				JOINT LeftFoot
				{
					OFFSET 2.562200 -7.039590 0.000000
					CHANNELS 3 Zrotation Yrotation Xrotation
					JOINT LeftToeBase
					{
						OFFSET 0.157640 -0.433110 2.322550
						CHANNELS 3 Zrotation Yrotation Xrotation
						End Site
						{
							OFFSET 0.000000 0.000000 0.000000
						}
					}
				}
			}
		}
	}
	JOINT RHipJoint
	{
		OFFSET 0.000000 0.000000 0.000000
		CHANNELS 3 Zrotation Yrotation Xrotation
		JOINT RightUpLeg
		{
			OFFSET -1.305520 -1.794630 0.839290
			CHANNELS 3 Zrotation Yrotation Xrotation
			JOINT RightLeg
			{
				OFFSET -2.542530 -6.985550 0.000000
				CHANNELS 3 Zrotation Yrotation Xrotation
				JOINT RightFoot
				{
					OFFSET -2.568260 -7.056230 0.000000
					CHANNELS 3 Zrotation Yrotation Xrotation
					JOINT RightToeBase
					{
						OFFSET -0.164730 -0.452590 2.363150
						CHANNELS 3 Zrotation Yrotation Xrotation
						End Site
						{
							OFFSET 0.000000 0.000000 0.000000
						}
					}
				}
			}
		}
	}
}
MOTION
Frames: 31
Frame Time: 0.008333
4.387565 17.371214 1.320581 12.113466 -76.308895 10.208885 -10.559223 0.602253 0.917873 -9.422032 -0.393849 -21.248867 -2.309212 -1.276151 -5.769921 0.700634 6.358499 6.755310 1.967999 0.000000 -38.239500 9.846774 0.864283 -2.304154 1.186454 -11.083649 -15.525943 1.632809 1.471280 -3.994448 -2.373343 -15.226238 6.479780 -5.047000 0.000001 -61.544401
4.385173 17.369867 1.307022 11.615116 -74.534143 10.469670 -10.562442 0.595416 1.146439 -9.207503 -1.425206 -21.097532 -2.291146 -1.256232 -5.704381 0.633956 5.930330 7.067786 1.890800 0.000000 -38.534900 9.832868 0.813785 -2.479763 1.258457 -11.874374 -14.879274 1.572864 1.464861 -3.972614 -2.554440 -16.141874 6.208970 -5.255400 0.000000 -61.174700
4.382180 17.368514 1.292113 11.242391 -72.796825 10.589087 -10.553528 0.591689 1.367274 -9.019081 -2.417287 -20.927637 -2.280170 -1.238172 -5.635528 0.568443 5.509605 7.378380 1.811799 0.000000 -38.804800 9.831774 0.761066 -2.641352 1.306628 -12.637068 -14.240391 1.509256 1.453292 -3.931025 -2.733928 -17.039380 5.944767 -5.454100 -0.000000 -60.806500
4.378804 17.367263 1.276047 10.956914 -71.112644 10.601591 -10.533878 0.591041 1.579185 -8.856225 -3.363543 -20.738092 -2.275420 -1.221447 -5.561077 0.504550 5.101442 7.682000 1.732400 -0.000000 -39.049500 9.842372 0.706607 -2.789523 1.332329 -13.370255 -13.609240 1.443603 1.437053 -3.872079 -2.909068 -17.907698 5.690344 -5.640899 -0.000000 -60.445200
4.374936 17.366212 1.259012 10.737484 -69.498785 10.529623 -10.504902 0.594001 1.780235 -8.720548 -4.253044 -20.528537 -2.276565 -1.205664 -5.480403 0.442682 4.707230 7.976147 1.653000 0.000000 -39.263500 9.864049 0.650830 -2.924195 1.335603 -14.070687 -12.984886 1.377187 1.417087 -3.803240 -3.077047 -18.737115 5.452947 -5.815700 0.000000 -60.097300
4.370858 17.365325 1.241150 10.569028 -67.967514 10.388707 -10.468064 0.599581 1.969386 -8.610311 -5.085668 -20.298903 -2.282297 -1.190672 -5.393150 0.383767 4.335729 8.256517 1.576299 0.000000 -39.450900 9.895223 0.594342 -3.046420 1.316951 -14.736020 -12.368339 1.311153 1.393956 -3.728429 -3.235921 -19.519069 5.232219 -5.976399 0.000000 -59.763800
4.366419 17.364863 1.222748 10.441277 -66.534371 10.193749 -10.425120 0.608094 2.144445 -8.527830 -5.848376 -20.053253 -2.292590 -1.176290 -5.301479 0.327912 3.983646 8.524366 1.501600 0.000000 -39.603500 9.934909 0.537578 -3.155358 1.277859 -15.360853 -11.761243 1.246390 1.369252 -3.660631 -3.383717 -20.249264 5.038604 -6.126400 -0.000000 -59.451200
4.361565 17.364891 1.203973 10.348519 -65.208891 9.956792 -10.377764 0.618835 2.304555 -8.471750 -6.538729 -19.796428 -2.306624 -1.162532 -5.206874 0.275345 3.654421 8.780321 1.430200 0.000000 -39.721100 9.981580 0.480843 -3.250913 1.220400 -15.941306 -11.166772 1.183566 1.344143 -3.609153 -3.519344 -20.924906 4.876627 -6.267700 0.000000 -59.159700
4.356479 17.365258 1.184838 10.293238 -63.991931 9.683800 -10.328013 0.630042 2.449302 -8.441744 -7.160450 -19.531790 -2.323967 -1.150143 -5.117520 0.226919 3.350320 9.027699 1.362900 -0.000000 -39.807200 10.033048 0.425167 -3.334081 1.144522 -16.476814 -10.590888 1.123166 1.319358 -3.577357 -3.642574 -21.542437 4.739208 -6.398000 0.000000 -58.890800
4.350687 17.366230 1.165592 10.271181 -62.887703 9.390587 -10.277327 0.641521 2.579240 -8.435086 -7.711958 -19.269699 -2.344178 -1.139258 -5.034702 0.182336 3.070329 9.270516 1.300000 -0.000000 -39.858500 10.088149 0.370176 -3.403270 1.055589 -16.963238 -10.039083 1.065548 1.296590 -3.579050 -3.753360 -22.105976 4.636310 -6.523500 0.000001 -58.641301
4.344229 17.367772 1.146261 10.283007 -61.889119 9.084859 -10.227273 0.651791 2.695566 -8.449384 -8.200719 -19.016372 -2.366955 -1.130525 -4.965541 0.141747 2.813994 9.514820 1.241700 -0.000000 -39.877600 10.145107 0.316394 -3.459406 0.956177 -17.404264 -9.518153 1.011201 1.276495 -3.617796 -3.852101 -22.615898 4.563793 -6.643900 0.000000 -58.409800
4.336834 17.369864 1.126886 10.328961 -60.986649 8.776769 -10.178985 0.659974 2.800616 -8.480973 -8.635674 -18.779623 -2.392091 -1.124531 -4.915875 0.104657 2.579484 9.766820 1.187800 -0.000000 -39.867100 10.202645 0.263948 -3.502784 0.850303 -17.804557 -9.034974 0.960596 1.259930 -3.698256 -3.939464 -23.074900 4.519658 -6.760100 0.000000 -58.193400
4.328262 17.372515 1.107501 10.406185 -60.166730 8.477341 -10.133125 0.665412 2.897773 -8.524905 -9.028928 -18.567605 -2.419229 -1.121716 -4.889959 0.071065 2.365401 10.032273 1.138500 0.000000 -39.829500 10.259746 0.212691 -3.534007 0.743062 -18.171372 -8.595406 0.914262 1.247578 -3.823549 -4.016307 -23.487208 4.502796 -6.873700 0.000000 -57.988900
4.318256 17.375702 1.088170 10.512524 -59.413065 8.195933 -10.090040 0.667713 2.990701 -8.575850 -9.393762 -18.386272 -2.448145 -1.122433 -4.891837 0.040220 2.168947 10.316069 1.093000 -0.000000 -39.768600 10.315781 0.162561 -3.554438 0.638759 -18.515596 -8.203988 0.872888 1.239886 -3.994495 -4.083234 -23.855341 4.510447 -6.984900 0.000000 -57.794399
4.306671 17.379394 1.068956 10.642232 -58.708090 7.941619 -10.049695 0.666627 3.083385 -8.627889 -9.744982 -18.240830 -2.478395 -1.126740 -4.922763 0.011777 1.988258 10.620958 1.051300 0.000000 -39.688100 10.370243 0.113300 -3.566073 0.542475 -18.849900 -7.863223 0.837273 1.237049 -4.210172 -4.140742 -24.182066 4.541275 -7.093900 0.000000 -57.608500
4.293446 17.383494 1.049962 10.788457 -58.034472 7.722374 -10.012228 0.662083 3.178923 -8.675554 -10.094054 -18.133583 -2.509636 -1.134484 -4.984400 -0.014710 1.818872 10.949608 1.011900 0.000000 -39.593700 10.422621 0.064903 -3.571836 0.458295 -19.188639 -7.573775 0.808372 1.239025 -4.467154 -4.189033 -24.468490 4.592805 -7.200300 0.000000 -57.430200
4.278558 17.387959 1.031373 10.941769 -57.376473 7.545842 -9.976995 0.654102 3.280538 -8.712307 -10.454330 -18.071737 -2.540981 -1.144621 -5.062342 -0.040002 1.660080 11.293746 0.974900 0.000000 -39.487601 10.472742 0.016823 -3.574046 0.391029 -19.542969 -7.333748 0.786827 1.245618 -4.762000 -4.228521 -24.717892 4.665438 -7.304900 -0.000001 -57.260500
4.262190 17.392733 1.013442 11.092174 -56.723161 7.416371 -9.940520 0.641357 3.386774 -8.738170 -10.839187 -18.177689 -2.568156 -1.142480 -4.897634 -0.067759 1.506454 11.504840 0.939800 0.000000 -39.373400 10.520128 -0.031062 -3.575122 0.344501 -19.923319 -7.139284 0.773344 1.256755 -5.088559 -4.259140 -24.931661 4.758763 -7.407899 0.000000 -57.100300
4.244669 17.397745 0.996435 11.228473 -56.064597 7.339249 -9.905576 0.625760 3.502380 -8.742516 -11.250333 -18.332681 -2.592828 -1.140368 -4.726160 -0.094122 1.362219 11.714534 0.906800 -0.000000 -39.253300 10.564731 -0.079324 -3.578176 0.322681 -20.335725 -6.985288 0.768309 1.271404 -5.439933 -4.281484 -25.112808 4.872777 -7.509900 -0.000000 -56.951200
4.226443 17.402931 0.980705 11.339968 -55.397560 7.317131 -9.872099 0.607907 3.627190 -8.721248 -11.686824 -18.529863 -2.614259 -1.137820 -4.550081 -0.119200 1.224548 11.920121 0.874800 0.000000 -39.131400 10.606133 -0.127989 -3.585422 0.328654 -20.782182 -6.866979 0.771972 1.288893 -5.807279 -4.295975 -25.263701 5.006380 -7.610700 0.000000 -56.812801
4.208122 17.408184 0.966548 11.416740 -54.721242 7.349101 -9.839383 0.587913 3.761113 -8.669667 -12.150781 -18.755299 -2.631526 -1.135056 -4.378025 -0.142374 1.099909 12.121300 0.846100 -0.000000 -39.007300 10.642606 -0.174511 -3.599534 0.364136 -21.256158 -6.812331 0.784039 1.301887 -6.100899 -4.286628 -25.387027 5.109768 -7.711200 0.000001 -56.687600
4.190439 17.413415 0.954158 11.448420 -54.028578 7.430321 -9.806409 0.563635 3.903365 -8.585439 -12.639704 -18.992569 -2.645136 -1.133299 -4.214457 -0.163963 0.992098 12.316219 0.822300 -0.000000 -38.883700 10.662717 -0.200233 -3.628692 0.428136 -21.731890 -7.048780 0.805165 1.266893 -5.774886 -4.140927 -25.476176 4.856300 -7.810600 0.000000 -56.574300
4.174047 17.418482 0.943784 11.437070 -53.341378 7.560054 -9.774984 0.537370 4.047529 -8.469903 -13.140407 -19.241379 -2.653471 -1.130763 -4.059138 -0.182965 0.899597 12.497517 0.802100 0.000000 -38.764400 10.677844 -0.226710 -3.664678 0.521531 -22.216452 -7.294231 0.833425 1.233208 -5.459088 -3.994847 -25.549081 4.626021 -7.909199 0.000000 -56.473100
4.159841 17.423166 0.935368 11.385372 -52.669544 7.726933 -9.745887 0.507269 4.188628 -8.323295 -13.654394 -19.481444 -2.655542 -1.128100 -3.925928 -0.197641 0.840340 12.665106 0.791600 0.000001 -38.653699 10.687150 -0.253666 -3.710173 0.638224 -22.697086 -7.532634 0.866925 1.200203 -5.160661 -3.853864 -25.608429 4.422055 -8.004100 0.000000 -56.382300
4.148118 17.427261 0.928972 11.298945 -52.020304 7.930277 -9.721035 0.472181 4.320424 -8.151899 -14.161670 -19.721875 -2.652526 -1.125089 -3.800526 -0.209234 0.801080 12.808174 0.786500 0.000000 -38.555700 10.689547 -0.281495 -3.762267 0.778345 -23.153029 -7.763009 0.903322 1.168586 -4.886267 -3.724205 -25.667068 4.244350 -8.096400 -0.000000 -56.302600
4.139476 17.430505 0.924273 11.188778 -51.402996 8.156597 -9.702037 0.429070 4.436623 -7.959905 -14.664237 -19.945868 -2.644177 -1.122696 -3.695251 -0.216257 0.799048 12.927912 0.792800 0.000000 -38.477000 10.683881 -0.309088 -3.823757 0.931655 -23.571049 -7.973624 0.940350 1.137677 -4.642262 -3.610666 -25.726423 4.090293 -8.181400 -0.000000 -56.229700
4.134011 17.432611 0.921001 11.068606 -50.822980 8.398632 -9.690568 0.375800 4.531411 -7.754938 -15.154756 -20.153141 -2.631543 -1.121443 -3.606987 -0.218873 0.834380 13.020374 0.810800 -0.000000 -38.423601 10.669348 -0.335653 -3.894543 1.091749 -23.937369 -8.162007 0.975842 1.107574 -4.433486 -3.517302 -25.792054 3.955026 -8.256600 -0.000000 -56.162900
4.131559 17.433403 0.918897 10.948605 -50.283385 8.656635 -9.688503 0.310896 4.600182 -7.545056 -15.620348 -20.358395 -2.616102 -1.121250 -3.521302 -0.218458 0.893490 13.078628 0.836100 0.000000 -38.400301 10.644854 -0.360229 -3.972551 1.256339 -24.238738 -8.334785 1.008092 1.079041 -4.262105 -3.446913 -25.872931 3.831333 -8.322100 -0.000001 -56.103200
4.131952 17.432606 0.917389 10.844055 -49.784925 8.918317 -9.695672 0.232921 4.640170 -7.336743 -16.067625 -20.552124 -2.598560 -1.122954 -3.445519 -0.214328 0.985977 13.106101 0.872100 -0.000000 -38.412600 10.611087 -0.380883 -4.060844 1.414125 -24.477372 -8.486899 1.036148 1.051752 -4.130090 -3.400370 -25.964108 3.712733 -8.371800 0.000000 -56.049900
4.134820 17.430098 0.916103 10.761799 -49.325342 9.179303 -9.710934 0.142568 4.651556 -7.136060 -16.496499 -20.737812 -2.580042 -1.126675 -3.375733 -0.207140 1.106135 13.103449 0.916700 0.000000 -38.461199 10.569538 -0.396219 -4.159266 1.559403 -24.658068 -8.620577 1.059769 1.026209 -4.037081 -3.377069 -26.063404 3.592353 -8.402600 0.000000 -56.003500
4.139450 17.425884 0.914746 10.703512 -48.901531 9.437978 -9.730930 0.044092 4.640050 -6.947319 -16.903080 -20.926180 -2.561879 -1.132064 -3.302633 -0.198333 1.238732 13.070588 0.964799 -0.000000 -38.545799 10.523687 -0.405905 -4.263451 1.691852 -24.790406 -8.741891 1.079391 1.003699 -3.979988 -3.374469 -26.168918 3.465245 -8.413900 0.000000 -55.965600
